<?xml version="1.0" standalone="no"?>
<!DOCTYPE svg PUBLIC "-//W3C//DTD SVG 20010904//EN"
 "http://www.w3.org/TR/2001/REC-SVG-20010904/DTD/svg10.dtd">
<svg version="1.0" xmlns="http://www.w3.org/2000/svg"
 width="200.000000pt" height="200.000000pt" viewBox="0 0 200.000000 200.000000"
 preserveAspectRatio="xMidYMid meet">
<metadata>
Created by potrace 1.11, written by Peter Selinger 2001-2013
</metadata>
<g transform="translate(0.000000,200.000000) scale(0.100000,-0.100000)"
fill="#000000" stroke="none">
<path d="M963 1878 c-16 -21 -21 -42 -13 -58 6 -10 -10 -54 -45 -126 -68 -143
-63 -142 -247 -61 -107 47 -138 65 -138 80 0 10 -13 32 -29 47 -26 26 -32 28
-62 20 -19 -6 -35 -10 -37 -10 -2 0 -9 -14 -16 -32 -31 -72 46 -138 109 -94
18 12 34 7 146 -43 l127 -56 0 -48 c1 -47 -1 -51 -69 -118 -62 -60 -73 -67
-91 -58 -35 19 -109 5 -135 -25 -12 -14 -24 -26 -27 -26 -5 0 -104 44 -171 76
-16 8 -37 29 -45 47 -32 68 -134 34 -116 -39 10 -37 46 -56 84 -43 27 9 42 6
124 -31 51 -23 96 -45 100 -48 4 -4 10 -23 13 -42 3 -19 13 -42 22 -52 14 -15
10 -24 -38 -97 -30 -45 -61 -81 -70 -81 -43 0 -51 -62 -12 -87 20 -14 24 -13
47 11 15 14 23 31 20 40 -3 8 17 47 46 91 51 76 52 77 90 71 25 -3 49 1 73 13
l36 19 61 -44 c53 -39 60 -48 60 -78 0 -25 7 -40 26 -55 39 -31 80 -27 115 10
23 25 57 40 164 74 l136 43 25 -23 c30 -28 68 -36 106 -23 27 10 33 7 76 -33
68 -65 82 -81 82 -95 0 -20 29 -44 54 -44 44 0 66 49 40 89 -13 18 -22 22 -47
18 -28 -4 -39 2 -88 50 -55 53 -56 56 -51 99 5 50 -15 89 -54 104 -13 5 -24
14 -25 20 0 5 0 66 0 135 0 178 0 175 16 181 9 4 65 -23 134 -65 l119 -71 98
-137 c54 -76 99 -145 99 -155 3 -38 48 -49 66 -17 9 18 7 25 -18 48 -27 24
-203 263 -203 275 0 3 39 38 86 78 71 59 92 72 116 69 58 -6 92 64 50 102 -44
40 -110 7 -103 -50 2 -17 -171 -164 -189 -161 -28 5 -220 123 -220 135 0 47
-53 88 -95 73 -15 -5 -43 12 -122 74 -57 45 -103 88 -103 97 0 37 -65 65 -87
37z m170 -171 c76 -61 97 -83 97 -103 0 -14 11 -36 27 -50 26 -24 26 -25 26
-175 0 -114 -3 -153 -13 -159 -9 -6 -34 9 -75 43 -214 179 -273 234 -274 251
-1 11 -8 27 -16 36 -14 15 -11 25 23 96 21 43 44 93 51 111 12 29 39 47 51 33
3 -3 49 -40 103 -83z m-64 -392 c94 -80 147 -133 142 -140 -5 -5 -12 -24 -15
-41 -5 -22 -14 -33 -29 -37 -12 -2 -72 -20 -134 -39 l-111 -35 -22 30 c-21 27
-26 29 -74 24 -47 -4 -55 -2 -107 35 -56 39 -56 39 -52 82 3 24 0 53 -6 65
-11 20 -6 28 60 93 68 68 74 72 114 69 28 -1 46 3 55 14 7 8 17 14 21 13 5 -2
76 -61 158 -133z"/>
<path d="M312 733 c-50 -24 -66 -56 -63 -120 2 -35 48 -69 120 -88 36 -10 72
-22 79 -28 18 -14 15 -45 -5 -55 -26 -13 -106 -7 -142 11 -33 16 -43 11 -56
-31 -5 -19 -1 -25 32 -38 121 -52 273 -3 273 88 0 63 -32 92 -130 118 -49 13
-90 35 -90 50 0 37 81 52 144 26 32 -13 34 -13 45 10 6 14 11 29 11 34 0 36
-160 53 -218 23z"/>
<path d="M712 737 c-73 -27 -122 -100 -122 -182 0 -105 79 -184 190 -190 60
-4 123 17 149 49 13 15 11 20 -11 43 l-26 25 -30 -22 c-53 -40 -145 -20 -171
37 -28 61 -4 144 48 165 52 22 88 17 152 -19 12 -7 51 37 45 52 -16 44 -150
68 -224 42z"/>
<path d="M999 710 c-3 -212 5 -260 49 -303 35 -33 74 -46 140 -43 55 1 90 21
126 70 19 24 21 45 24 171 l3 143 -35 -2 c-19 -1 -38 -5 -43 -9 -4 -5 -8 -59
-9 -120 -1 -134 -5 -150 -45 -170 -39 -18 -76 -9 -102 25 -16 22 -19 44 -20
147 -1 67 -4 122 -7 122 -3 1 -22 2 -42 3 -37 2 -38 1 -39 -34z"/>
<path d="M1383 734 c-3 -7 -3 -23 -1 -36 3 -21 8 -23 58 -23 l55 0 5 -155 5
-155 25 2 c14 0 32 1 41 2 13 1 15 21 14 139 0 75 1 144 3 153 3 13 14 16 52
14 60 -3 72 5 68 41 l-3 29 -159 0 c-115 0 -160 -3 -163 -11z"/>
<path d="M609 295 c-36 -20 -54 -67 -43 -113 11 -45 62 -83 102 -76 38 6 72
25 66 36 -3 5 -12 4 -19 -2 -35 -29 -109 -7 -126 37 -28 74 50 141 121 103 13
-7 21 -7 25 0 8 12 -37 30 -73 30 -15 -1 -39 -7 -53 -15z"/>
<path d="M800 282 c-27 -23 -33 -36 -33 -65 0 -70 36 -108 104 -109 40 0 73
17 63 34 -3 5 -11 5 -18 -2 -7 -5 -25 -11 -39 -12 -79 -7 -120 86 -61 140 27
24 82 30 102 10 6 -6 15 -8 19 -4 13 13 -29 36 -67 36 -25 0 -46 -9 -70 -28z"/>
<path d="M990 210 c0 -60 4 -100 10 -100 6 0 10 33 10 78 l0 77 42 -69 c31
-51 44 -65 51 -55 5 8 24 39 42 69 l35 55 0 -77 c0 -45 4 -78 10 -78 6 0 10
40 10 100 0 55 -4 100 -9 100 -5 0 -28 -34 -52 -75 l-43 -75 -44 75 c-24 41
-48 75 -53 75 -5 0 -9 -45 -9 -100z"/>
<path d="M1269 298 c-4 -38 -4 -165 -1 -175 8 -24 22 -13 22 16 0 27 3 29 50
33 63 6 80 21 80 69 0 28 -6 42 -22 53 -28 20 -127 22 -129 4z m119 -20 c7 -7
12 -24 12 -38 0 -37 -18 -50 -66 -50 -47 0 -52 9 -46 68 4 30 6 32 46 32 23 0
47 -5 54 -12z"/>
</g>
</svg>
